# xmcd
#
# Track frame offsets:
#	150
#	27557
#	50261
#	71303
#	92107
#	113952
#	134713
#	150471
#	171844
#	193122
#	211415
#	233762
#
# Disc length: 3406 seconds
#
# Revision: 0
# Processed by: cddbd v1.5.1PL0 Copyright (c) Steve Scherf et al.
# Submitted via: dBpowerAMP V4.0
#
DISCID=a70d4c0c
DTITLE=Chris Rea - The Blue Cafe
DYEAR=1998
DGENRE=Blues
TTITLE0=Square Peg, Round Hole
TTITLE1=Miss Your Kiss
TTITLE2=Shadows of the Big Man
TTITLE3=Where Do We Go from Here?
TTITLE4=Since I Found You
TTITLE5=Thinking of You
TTITLE6=As Long as I Have Your Love
TTITLE7=Anyone Quite Like You
TTITLE8=Sweet Summer Day
TTITLE9=Stick by You
TTITLE10=I'm Still Holding On
TTITLE11=Blue Cafe
EXTD=
EXTT0=
EXTT1=
EXTT2=
EXTT3=
EXTT4=
EXTT5=
EXTT6=
EXTT7=
EXTT8=
EXTT9=
EXTT10=
EXTT11=
PLAYORDER=
